<?xml version="1.0" encoding="UTF-8"?><svg id="a" xmlns="http://www.w3.org/2000/svg" viewBox="0 0 789.08 81.61"><path d="M0,79.82V1.78h34.56v31.44L84.39,1.78h50.5l-53.96,33.11,57.3,44.93h-47.6l-35.9-29.21-20.18,12.37v16.83H0Z" fill="#fff"/><path d="M124.08,79.82v-25.86h51.84v-26.31h-51.84V1.78h138.24v25.86h-51.84v26.31h51.84v25.86H124.08Z" fill="#fff"/><path d="M258.53,79.82V1.78h34.11l69.57,43.03V1.78h34.56v78.04h-34.11l-69.57-43.03v43.03h-34.56Z" fill="#fff"/><path d="M459.75,81.61c-14.12,0-26.37-1.62-36.73-4.85-10.37-3.23-18.36-7.86-23.97-13.88-5.61-6.02-8.42-13.16-8.42-21.4v-1.34c0-8.32,2.8-15.48,8.42-21.46,5.61-5.98,13.6-10.59,23.97-13.82s22.61-4.85,36.73-4.85,26.46,1.62,36.79,4.85c10.33,3.23,18.3,7.84,23.91,13.82,5.61,5.98,8.42,13.14,8.42,21.46v1.34c0,8.25-2.81,15.38-8.42,21.4-5.61,6.02-13.58,10.65-23.91,13.88-10.33,3.23-22.6,4.85-36.79,4.85ZM459.75,55.96c10.18,0,18.23-1.28,24.13-3.85,5.91-2.56,8.86-6.11,8.86-10.65v-1.34c0-4.53-2.95-8.08-8.86-10.65-5.91-2.56-13.95-3.85-24.13-3.85s-18.14,1.28-24.08,3.85c-5.95,2.56-8.92,6.11-8.92,10.65v1.34c0,4.53,2.97,8.08,8.92,10.65,5.95,2.56,13.97,3.85,24.08,3.85Z" fill="#fff"/><path d="M522.74,79.82V1.78h111.15c7.95,0,14.05,1.77,18.28,5.3,4.24,3.53,6.35,8.38,6.35,14.55,0,4.76-1.45,8.62-4.35,11.59-2.9,2.97-7.43,5.02-13.6,6.13v2.23c6.76.6,11.85,2.51,15.27,5.74,3.42,3.23,5.13,7.41,5.13,12.54v19.96h-36.12v-18.84c0-1.34-.41-2.41-1.23-3.23-.82-.82-1.93-1.23-3.34-1.23h-62.99v23.3h-34.56ZM557.3,35.34h60.76c1.41,0,2.53-.45,3.34-1.34.82-.89,1.23-2.08,1.23-3.57,0-1.63-.45-2.86-1.34-3.68-.89-.82-1.97-1.23-3.23-1.23h-60.76v9.81Z" fill="#fff"/><path d="M712.04,81.61c-8.77,0-16.87-.93-24.3-2.79-7.43-1.86-13.9-4.53-19.4-8.03-5.5-3.49-9.77-7.71-12.82-12.65-3.05-4.94-4.57-10.5-4.57-16.67v-1.34c0-8.25,2.82-15.38,8.47-21.4,5.65-6.02,13.66-10.65,24.03-13.88,10.37-3.23,22.54-4.85,36.51-4.85,16.87,0,31.14,2.1,42.81,6.3,11.67,4.2,20.44,10.09,26.31,17.67l-34.67,10.26c-2.97-3.12-7.3-5.52-12.99-7.19-5.69-1.67-12.84-2.51-21.46-2.51-10.85,0-19.4,1.39-25.64,4.18s-9.36,6.6-9.36,11.43v1.34c0,4.83,3.12,8.64,9.36,11.43s14.79,4.18,25.64,4.18c4.31,0,8.77-.24,13.38-.72,4.61-.48,8.96-1.19,13.04-2.12,4.09-.93,7.47-2.06,10.15-3.4h-36.9v-13.38h69.45v42.36h-26.76l1.12-16.72h-2.12c-2.53,3.87-6.21,7.17-11.04,9.92-4.83,2.75-10.5,4.87-17,6.35-6.5,1.49-13.58,2.23-21.24,2.23Z" fill="#fff"/></svg>